<svg id="Capa_1" enable-background="new 0 0 511.43 511.43" height="512" viewBox="0 0 511.43 511.43" width="512" xmlns="http://www.w3.org/2000/svg"><g><path d="m375.245 503.93h-239.06c-10.936 0-19.801-8.865-19.801-19.801v-98.319c0-54.935 44.534-99.469 99.469-99.469h79.725c54.935 0 99.469 44.534 99.469 99.469v98.319c-.001 10.936-8.866 19.801-19.802 19.801z" fill="#698ed5"/><path d="m295.577 286.341h-29.227c54.935 0 99.469 44.534 99.469 99.469v98.319c0 10.936-8.865 19.801-19.801 19.801h29.227c10.936 0 19.801-8.865 19.801-19.801v-98.319c0-54.935-44.534-99.469-99.469-99.469z" fill="#4073c8"/><path d="m295.577 286.341h-.809v40.25h80.732c-18.124-24.421-47.174-40.25-79.923-40.25z" fill="#f6e266"/><path d="m346.273 326.592h29.227c-5.324-4.413-22.651-38.294-80.732-40.25v4.127c20.857 6.207 38.846 19.066 51.505 36.123z" fill="#ffd064"/><path d="m216.661 326.592v-40.25h-.809c-32.749 0-61.799 15.829-79.923 40.25z" fill="#f6e266"/><path d="m216.705 503.93h78.019l-39.009-184.813z" fill="#544f57"/><path d="m255.715 319.117-8.441 39.988 30.569 144.825h16.881z" fill="#454045"/><path d="m231.818 343.199h47.794v47.794h-47.794z" fill="#afaab4" transform="matrix(.707 -.707 .707 .707 -184.679 288.338)"/><path d="m255.715 355.953 49.586-122.83h-99.172z" fill="#544f57"/><g fill="#f6f1f1"><path d="m255.715 355.953-33.057-81.887-21.806 17.87c-6.537 5.357-8.753 14.387-5.438 22.161l27.721 65.02z"/><path d="m255.715 355.953 33.057-81.887 21.806 17.87c6.537 5.357 8.753 14.387 5.438 22.161l-27.721 65.02z"/></g><path d="m255.715 301.631c-49.329 0-89.318-39.989-89.318-89.318v-71.318h178.636v71.318c-.001 49.329-39.989 89.318-89.318 89.318z" fill="#f1d0a5"/><path d="m324.152 140.996c-52.585 0-105.17 0-157.755 0v25.044c45.017 20.999 90.034 26.111 135.051 15.356 11.568-2.764 22.703 5.9 22.703 17.794v13.124c0 45.796-34.469 83.536-78.877 88.707 3.425.399 6.908.611 10.44.611 49.329 0 89.318-39.989 89.318-89.318v-71.318z" fill="#f1b986"/><g fill="#e2a770"><path d="m166.397 216.313h-7.405c-11.217 0-20.309-9.093-20.309-20.309v-4.213c0-11.217 9.093-20.309 20.309-20.309h7.405z"/><path d="m345.032 216.313h7.405c11.217 0 20.309-9.093 20.309-20.309v-4.213c0-11.217-9.093-20.309-20.309-20.309h-7.405z"/></g><path d="m349.64 149.444c-62.617 30.716-125.234 30.716-187.851 0-2.82-1.383-4.615-4.247-4.615-7.388v-17.016h197.081v17.016c0 3.141-1.795 6.005-4.615 7.388z" fill="#544f57"/><path d="m339.438 125.04v17.016c0 3.14-1.795 6.005-4.615 7.388-28.839 14.146-57.678 21.76-86.517 22.876 33.778 1.307 67.556-6.307 101.334-22.876 2.82-1.383 4.615-4.248 4.615-7.388v-17.016z" fill="#454045"/><path d="m357.422 49.489c-34.639 5.108-69.336-8.888-90.736-36.6-5.549-7.186-16.393-7.186-21.942 0-21.4 27.712-56.097 41.708-90.736 36.6l-8.731-1.287c-7.507-1.107-12.798 7.106-8.74 13.517 8.682 13.717 13.412 29.735 13.412 46.264v17.057h105.767v-.001.001h105.767v-17.057c0-16.528 4.73-32.547 13.412-46.264 4.058-6.411-1.233-14.624-8.74-13.517z" fill="#698ed5"/><g fill="#4073c8"><path d="m157.09 49.891c-1.027-.118-2.055-.25-3.083-.402l-8.731-1.287c-2.755-.406-5.205.45-7.011 2.004 6.328.514 12.629.394 18.825-.315z"/><path d="m332.296 49.891c-25.624-2.934-49.422-16.039-65.61-37.002-5.549-7.186-16.393-7.186-21.942 0-.017.021-.034.042-.051.063 20.769 26.848 54.026 40.797 87.603 36.939z"/><path d="m366.154 48.202-8.731 1.287c-2.101.31-4.203.546-6.301.717 3.114 2.681 4.298 7.454 1.729 11.513-8.682 13.717-13.412 29.735-13.412 46.264v17.057h22.044v-17.057c0-16.529 4.73-32.547 13.412-46.264 4.057-6.412-1.235-14.624-8.741-13.517z"/><path d="m233.671 125.04v-.001z"/></g><path d="m255.715 98.838 9.835-7.145c8.286-6.02 11.753-16.69 8.588-26.431l-3.756-11.561h-29.332l-3.756 11.561c-3.165 9.74.302 20.411 8.588 26.431z" fill="#f6e266"/><path d="m274.137 65.262-3.756-11.561h-13.65l3.107 9.561c3.165 9.74-.302 20.411-8.588 26.431l-4.061 2.95 8.526 6.195 9.835-7.145c8.285-6.02 11.752-16.69 8.587-26.431z" fill="#ffd064"/><path d="m343.99 373.091 5.253 10.644c.404.819 1.186 1.387 2.09 1.519l11.746 1.707c2.277.331 3.186 3.129 1.539 4.735l-8.5 8.285c-.654.638-.953 1.557-.798 2.457l2.007 11.699c.389 2.268-1.991 3.997-4.028 2.927l-10.506-5.523c-.809-.425-1.775-.425-2.584 0l-10.506 5.523c-2.037 1.071-4.417-.659-4.028-2.927l2.007-11.699c.154-.901-.144-1.82-.798-2.457l-8.5-8.285c-1.648-1.606-.738-4.404 1.539-4.735l11.746-1.707c.904-.131 1.686-.699 2.09-1.519l5.253-10.644c1.017-2.064 3.96-2.064 4.978 0z" fill="#f6e266"/><path d="m200.223 420.62h-52.579c-2.992 0-5.417-2.425-5.417-5.417v-13.78c0-2.992 2.425-5.417 5.417-5.417h52.579c2.992 0 5.417 2.425 5.417 5.417v13.78c0 2.991-2.426 5.417-5.417 5.417z" fill="#f6f1f1"/><g><path d="m322.591 282.292c4.48-4.273 8.584-8.995 12.223-14.14 2.392-3.382 1.588-8.062-1.794-10.454-3.382-2.391-8.062-1.589-10.454 1.794-15.338 21.689-40.329 34.639-66.852 34.639-45.114 0-81.817-36.703-81.817-81.817v-40.832-8.365c26.299 10.833 53.935 16.797 81.817 16.797 28.609 0 56.298-6.283 81.818-16.797v8.365 40.832c0 7.53-1.024 14.994-3.044 22.184-1.12 3.987 1.205 8.129 5.192 9.249 3.988 1.121 8.129-1.204 9.249-5.192 1.355-4.825 2.318-9.755 2.91-14.74h.598c15.334 0 27.81-12.476 27.81-27.81v-4.213c0-15.302-12.424-27.756-27.715-27.807v-7.611c.137-.067.273-.128.41-.195.001 0 .001 0 .002-.001 5.353-2.627 8.811-8.17 8.811-14.121v-9.516h7.369c4.143 0 7.5-3.357 7.5-7.5s-3.357-7.5-7.5-7.5h-.143v-9.558c0-14.982 4.235-29.593 12.249-42.253 3.472-5.484 3.435-12.267-.098-17.7-3.519-5.413-9.671-8.188-16.074-7.248l-8.73 1.288c-31.915 4.708-63.989-8.231-83.706-33.765-4.076-5.279-10.238-8.305-16.908-8.305-6.669 0-12.831 3.026-16.907 8.305-8.217 10.642-18.941 19.43-31.014 25.415-3.711 1.84-5.229 6.34-3.389 10.051 1.841 3.711 6.341 5.227 10.051 3.389 14.099-6.99 26.625-17.255 36.225-29.687 1.213-1.571 3.049-2.473 5.034-2.473 1.986 0 3.822.901 5.035 2.473 23.028 29.821 60.487 44.932 97.768 39.437l8.73-1.288c.209-.033.848-.125 1.31.584.481.741.119 1.314 0 1.502-9.535 15.063-14.575 32.448-14.575 50.275v9.558h-196.534v-9.558c0-17.827-5.04-35.212-14.575-50.274-.119-.188-.481-.762 0-1.503.462-.71 1.101-.615 1.309-.584l8.731 1.288c9.542 1.407 19.246 1.478 28.846.212 4.106-.542 6.996-4.31 6.454-8.417s-4.314-7.002-8.417-6.454c-8.218 1.085-16.528 1.024-24.693-.181l-8.732-1.288c-6.4-.942-12.555 1.835-16.073 7.248-3.532 5.434-3.569 12.216-.098 17.701 8.014 12.659 12.249 27.27 12.249 42.252v9.558h-.143c-4.143 0-7.5 3.357-7.5 7.5s3.357 7.5 7.5 7.5h7.369v9.516c0 5.951 3.458 11.494 8.812 14.122.137.067.273.128.41.195v7.611c-15.29.052-27.715 12.505-27.715 27.807v4.213c0 15.334 12.476 27.81 27.81 27.81h.591c2.72 22.875 13.44 43.329 29.284 58.472-46.579 12.105-79.983 54.364-79.983 103.524v98.319c0 15.054 12.247 27.301 27.302 27.301h23.467c4.143 0 7.5-3.357 7.5-7.5s-3.357-7.5-7.5-7.5h-23.467c-6.783 0-12.302-5.519-12.302-12.301v-98.32c0-18.604 5.587-36.554 15.919-51.718h55.981l20.45 47.967c.891 2.088 2.679 3.661 4.863 4.277 4.266 1.2 6.994-1.668 7.531-1.923l4.657 4.657-22.661 107.36h-20.985c-4.143 0-7.5 3.357-7.5 7.5s3.357 7.5 7.5 7.5h185.605c15.055 0 27.302-12.247 27.302-27.301v-98.319c0-48.902-33.162-91.344-79.955-103.518zm42.657-90.501v4.213c0 7.032-5.695 12.759-12.715 12.81v-29.832c7.019.05 12.715 5.777 12.715 12.809zm-18.493-59.251c-.156 9.575.345 9.792-.418 10.171-28.004 13.736-58.677 22.255-90.623 22.255-31.93 0-62.652-8.533-90.62-22.254-.255-.126-.42-.383-.42-.656v-9.516zm-200.573 63.464v-4.213c0-7.032 5.695-12.759 12.715-12.81v29.832c-7.02-.05-12.715-5.777-12.715-12.809zm138.868 171.603-20.165-14.337 19.592-48.53c6.797-2.121 13.33-4.989 19.486-8.529l1.861 1.525c3.934 3.224 5.287 8.741 3.293 13.419zm37.867-50.568c2.595-6.088 2.725-12.792.715-18.812 13.089 4.187 25.116 11.289 35.208 20.865h-36.798zm-56.128-8.554-11.074 27.431-11.07-27.422c3.634.416 7.326.637 11.07.637 3.722 0 7.418-.223 11.074-.646zm-114.199 10.607c10.092-9.576 22.119-16.678 35.208-20.865-2.01 6.02-1.88 12.724.715 18.812l.875 2.053zm49.722-7.936c-1.994-4.678-.641-10.195 3.293-13.419l1.849-1.515c6.116 3.531 12.651 6.414 19.512 8.552l19.579 48.497-20.165 14.337zm53.403 53.999 14.688 10.442-14.688 14.688-14.687-14.688zm-29.761 131.275 19.989-94.702c3.422 2.904 5.097 6.664 9.772 6.664 4.674 0 6.325-3.74 9.772-6.666l19.989 94.704zm161.592-12.301c0 6.782-5.519 12.301-12.302 12.301h-74.439l-22.661-107.361 4.656-4.656c.539.256 3.261 3.125 7.531 1.924 2.185-.616 3.973-2.189 4.863-4.277l20.45-47.967h55.981c10.332 15.165 15.92 33.114 15.92 51.718v98.318z"/><path d="m288.862 201.293v9.069c0 4.143 3.357 7.5 7.5 7.5s7.5-3.357 7.5-7.5v-9.069c0-4.143-3.357-7.5-7.5-7.5s-7.5 3.357-7.5 7.5z"/><path d="m207.568 201.293v9.069c0 4.143 3.357 7.5 7.5 7.5s7.5-3.357 7.5-7.5v-9.069c0-4.143-3.357-7.5-7.5-7.5s-7.5 3.357-7.5 7.5z"/><path d="m268.061 240.395c-8.539 6.48-16.154 6.48-24.693 0-3.299-2.503-8.004-1.858-10.509 1.44-2.504 3.3-1.859 8.004 1.44 10.509 7.005 5.316 14.21 7.974 21.415 7.974s14.41-2.657 21.415-7.974c3.3-2.505 3.944-7.209 1.44-10.509s-7.208-3.945-10.508-1.44z"/><path d="m251.307 104.906c1.314.954 2.861 1.432 4.408 1.432s3.094-.478 4.408-1.433l9.834-7.145c10.948-7.954 15.494-21.946 11.312-34.815l-3.757-11.562c-1.004-3.091-3.884-5.183-7.133-5.183h-29.331c-3.249 0-6.129 2.092-7.133 5.183l-3.757 11.562c-4.182 12.869.364 26.861 11.312 34.816zm-6.882-37.326 2.073-6.379h18.433l2.073 6.379c2.167 6.671-.188 13.923-5.863 18.046l-5.426 3.941-5.427-3.941c-5.674-4.123-8.03-11.375-5.863-18.046z"/><path d="m364.159 379.538-9.29-1.351-4.153-8.416c-1.744-3.534-5.275-5.729-9.215-5.729-.001 0-.002 0-.002 0-3.94.001-7.471 2.197-9.213 5.729l-4.154 8.417-9.289 1.35c-3.899.566-7.078 3.247-8.296 6.995-1.217 3.747-.22 7.783 2.601 10.533l6.722 6.551-1.586 9.25c-.667 3.884.898 7.736 4.087 10.053 3.192 2.318 7.341 2.614 10.823.782l8.308-4.368 8.307 4.367c3.487 1.835 7.634 1.535 10.822-.78s4.755-6.167 4.089-10.053l-1.587-9.25 6.722-6.552c2.821-2.75 3.818-6.786 2.602-10.533-1.22-3.748-4.399-6.429-8.298-6.995zm-13.275 15.071c-2.423 2.36-3.527 5.761-2.956 9.098l.388 2.264-2.035-1.07c-2.993-1.573-6.567-1.573-9.562.001l-2.034 1.07.388-2.26c.574-3.337-.53-6.739-2.954-9.103l-1.646-1.604 2.271-.33c3.35-.484 6.243-2.587 7.741-5.622l1.018-2.061 1.017 2.06c1.498 3.036 4.393 5.138 7.737 5.622l2.275.331z"/><path d="m213.14 415.202v-13.779c0-7.122-5.795-12.917-12.918-12.917h-52.578c-7.122 0-12.917 5.795-12.917 12.917v13.779c0 7.122 5.795 12.917 12.917 12.917h52.578c7.123 0 12.918-5.795 12.918-12.917zm-15-2.083h-48.413v-9.613h48.413z"/></g></g></svg>